<svg width="16" height="16" viewBox="0 0 16 16" fill="none" xmlns="http://www.w3.org/2000/svg">
<path d="M13 14V15V14ZM1 4V13H3V4H1ZM13 13H3V15H13V13ZM13 4V13H15V4H13ZM13 2H3V4H13V2ZM15 4C15 2.9 14.105 2 13 2V4H15ZM3 4V2C1.895 2 1 2.9 1 4H3ZM1 13C1 14.1 1.895 15 3 15V13H1ZM13 15C14.105 15 15 14.1 15 13H13V15Z" fill="#8A1702"/>
<path fill-rule="evenodd" clip-rule="evenodd" d="M1 7C1 6.44772 1.44772 6 2 6H14C14.5523 6 15 6.44772 15 7C15 7.55228 14.5523 8 14 8H2C1.44772 8 1 7.55228 1 7Z" fill="#8A1702"/>
<path fill-rule="evenodd" clip-rule="evenodd" d="M5 1C5.55228 1 6 1.44772 6 2V4C6 4.55228 5.55228 5 5 5C4.44772 5 4 4.55228 4 4V2C4 1.44772 4.44772 1 5 1Z" fill="#8A1702"/>
<path fill-rule="evenodd" clip-rule="evenodd" d="M11 1C11.5523 1 12 1.44772 12 2V4C12 4.55228 11.5523 5 11 5C10.4477 5 10 4.55228 10 4V2C10 1.44772 10.4477 1 11 1Z" fill="#8A1702"/>
</svg>
