<svg width="26" height="26" viewBox="0 0 26 26" fill="none" xmlns="http://www.w3.org/2000/svg">
<path d="M23.0967 6.49219H20.1758C20.6274 5.89194 20.8955 5.14617 20.8955 4.33887C20.8955 2.35997 19.2855 0.75 17.3066 0.75C16.1146 0.75 15.2356 1.17708 14.5404 2.09401C13.9588 2.86116 13.5334 3.93227 13 5.28561C12.4666 3.93222 12.0412 2.86116 11.4596 2.09401C10.7644 1.17708 9.88539 0.75 8.69336 0.75C6.71446 0.75 5.10449 2.35997 5.10449 4.33887C5.10449 5.14617 5.3726 5.89194 5.82423 6.49219H2.90332C1.71598 6.49219 0.75 7.45817 0.75 8.64551V10.0811C0.75 11.0168 1.35011 11.8146 2.18555 12.1109V23.0967C2.18555 24.284 3.15153 25.25 4.33887 25.25H21.6611C22.8485 25.25 23.8145 24.284 23.8145 23.0967V12.1109C24.6499 11.8146 25.25 11.0168 25.25 10.0811V8.64551C25.25 7.45817 24.284 6.49219 23.0967 6.49219ZM14.3175 5.85768C15.4171 3.06803 15.8352 2.18555 17.3066 2.18555C18.494 2.18555 19.46 3.15153 19.46 4.33887C19.46 5.52621 18.494 6.49219 17.3066 6.49219H14.0665C14.1544 6.27135 14.2383 6.05875 14.3175 5.85768ZM8.69336 2.18555C10.1648 2.18555 10.5829 3.06803 11.6825 5.85768C11.7617 6.05875 11.8456 6.27135 11.9335 6.49219H8.69336C7.50602 6.49219 6.54004 5.52621 6.54004 4.33887C6.54004 3.15153 7.50602 2.18555 8.69336 2.18555ZM10.1289 23.8145H4.33887C3.94309 23.8145 3.62109 23.4925 3.62109 23.0967V12.2344H10.1289V23.8145ZM10.1289 10.7988H2.90332C2.50754 10.7988 2.18555 10.4768 2.18555 10.0811V8.64551C2.18555 8.24973 2.50754 7.92773 2.90332 7.92773H10.1289V10.7988ZM14.4355 23.8145H11.5645V7.92773C11.7149 7.92773 13.6106 7.92773 14.4355 7.92773V23.8145ZM22.3789 23.0967C22.3789 23.4925 22.0569 23.8145 21.6611 23.8145H15.8711V12.2344H22.3789V23.0967ZM23.8145 10.0811C23.8145 10.4768 23.4925 10.7988 23.0967 10.7988H15.8711V7.92773H23.0967C23.4925 7.92773 23.8145 8.24973 23.8145 8.64551V10.0811Z" fill="#8A1702"/>
</svg>
